<?xml version="1.0" encoding="UTF-8" standalone="no"?>
<!DOCTYPE svg PUBLIC "-//W3C//DTD SVG 1.1//EN"
 "http://www.w3.org/Graphics/SVG/1.1/DTD/svg11.dtd">
<!-- Generated by graphviz version 5.0.0 (20220707.1540)
 -->
<!-- Title: UmlClassDiagram Pages: 1 -->
<svg width="512pt" height="540pt"
 viewBox="0.00 0.00 512.03 539.60" xmlns="http://www.w3.org/2000/svg" xmlns:xlink="http://www.w3.org/1999/xlink">
<g id="graph0" class="graph" transform="scale(1 1) rotate(0) translate(4 535.6)">
<title>UmlClassDiagram</title>
<polygon fill="white" stroke="transparent" points="-4,4 -4,-535.6 508.03,-535.6 508.03,4 -4,4"/>
<!-- 0 -->
<g id="node1" class="node">
<title>0</title>
<polygon fill="#f2f2f2" stroke="black" points="0,-0.5 0,-326.9 504.03,-326.9 504.03,-0.5 0,-0.5"/>
<text text-anchor="middle" x="252.02" y="-310.3" font-family="Times,serif" font-size="14.00">NFTBidding</text>
<text text-anchor="middle" x="252.02" y="-293.5" font-family="Times,serif" font-size="14.00">MySmartContract.sol</text>
<polyline fill="none" stroke="black" points="0,-285.3 504.03,-285.3 "/>
<text text-anchor="start" x="8" y="-268.7" font-family="Times,serif" font-size="14.00">Public:</text>
<text text-anchor="start" x="8" y="-251.9" font-family="Times,serif" font-size="14.00"> &#160;&#160;nfts: mapping(uint256=&gt;NFT)</text>
<text text-anchor="start" x="8" y="-235.1" font-family="Times,serif" font-size="14.00"> &#160;&#160;nftCount: uint256</text>
<text text-anchor="start" x="8" y="-218.3" font-family="Times,serif" font-size="14.00"> &#160;&#160;contractOwner: address</text>
<polyline fill="none" stroke="black" points="0,-210.1 504.03,-210.1 "/>
<text text-anchor="start" x="8" y="-193.5" font-family="Times,serif" font-size="14.00">External:</text>
<text text-anchor="start" x="8" y="-176.7" font-family="Times,serif" font-size="14.00"> &#160;&#160;&#160;&lt;&lt;payable&gt;&gt; null()</text>
<text text-anchor="start" x="8" y="-159.9" font-family="Times,serif" font-size="14.00">Public:</text>
<text text-anchor="start" x="8" y="-143.1" font-family="Times,serif" font-size="14.00"> &#160;&#160;&#160;&lt;&lt;payable&gt;&gt; placeBid(_id: uint256)</text>
<text text-anchor="start" x="8" y="-126.3" font-family="Times,serif" font-size="14.00"> &#160;&#160;&#160;&lt;&lt;event&gt;&gt; NFTCreated(id: uint256, name: string, owner: address)</text>
<text text-anchor="start" x="8" y="-109.5" font-family="Times,serif" font-size="14.00"> &#160;&#160;&#160;&lt;&lt;event&gt;&gt; BidPlaced(id: uint256, bidder: address, bidAmount: uint256)</text>
<text text-anchor="start" x="8" y="-92.7" font-family="Times,serif" font-size="14.00"> &#160;&#160;&#160;&lt;&lt;event&gt;&gt; NFTTransferred(id: uint256, newOwner: address, finalAmount: uint256)</text>
<text text-anchor="start" x="8" y="-75.9" font-family="Times,serif" font-size="14.00"> &#160;&#160;&#160;&lt;&lt;modifier&gt;&gt; onlyOwner()</text>
<text text-anchor="start" x="8" y="-59.1" font-family="Times,serif" font-size="14.00"> &#160;&#160;&#160;&lt;&lt;modifier&gt;&gt; onlyNFTOwner(_id: uint256)</text>
<text text-anchor="start" x="8" y="-42.3" font-family="Times,serif" font-size="14.00"> &#160;&#160;&#160;constructor()</text>
<text text-anchor="start" x="8" y="-25.5" font-family="Times,serif" font-size="14.00"> &#160;&#160;&#160;createNFT(_name: string)</text>
<text text-anchor="start" x="8" y="-8.7" font-family="Times,serif" font-size="14.00"> &#160;&#160;&#160;finalizeAuction(_id: uint256) &lt;&lt;onlyNFTOwner&gt;&gt;</text>
</g>
<!-- 1 -->
<g id="node2" class="node">
<title>1</title>
<polygon fill="#f2f2f2" stroke="black" points="180.06,-363.9 180.06,-531.1 323.98,-531.1 323.98,-363.9 180.06,-363.9"/>
<text text-anchor="middle" x="252.02" y="-514.5" font-family="Times,serif" font-size="14.00">&lt;&lt;Struct&gt;&gt;</text>
<text text-anchor="middle" x="252.02" y="-497.7" font-family="Times,serif" font-size="14.00">NFT</text>
<text text-anchor="middle" x="252.02" y="-480.9" font-family="Times,serif" font-size="14.00">MySmartContract.sol</text>
<polyline fill="none" stroke="black" points="180.06,-472.7 323.98,-472.7 "/>
<text text-anchor="start" x="188.06" y="-456.1" font-family="Times,serif" font-size="14.00">id: uint256</text>
<text text-anchor="start" x="188.06" y="-439.3" font-family="Times,serif" font-size="14.00">name: string</text>
<text text-anchor="start" x="188.06" y="-422.5" font-family="Times,serif" font-size="14.00">owner: address</text>
<text text-anchor="start" x="188.06" y="-405.7" font-family="Times,serif" font-size="14.00">currentBid: uint256</text>
<text text-anchor="start" x="188.06" y="-388.9" font-family="Times,serif" font-size="14.00">highestBidder: address</text>
<text text-anchor="start" x="188.06" y="-372.1" font-family="Times,serif" font-size="14.00">active: bool</text>
</g>
<!-- 0&#45;&gt;1 -->
<g id="edge2" class="edge">
<title>0&#45;&gt;1</title>
<path fill="none" stroke="black" d="M245.34,-326.99C245.39,-336.05 245.49,-344.99 245.63,-353.65"/>
<polygon fill="black" stroke="black" points="242.13,-353.74 245.8,-363.68 249.13,-353.62 242.13,-353.74"/>
</g>
<!-- 1&#45;&gt;0 -->
<g id="edge1" class="edge">
<title>1&#45;&gt;0</title>
<path fill="none" stroke="black" d="M258.23,-363.68C258.38,-355.71 258.51,-347.45 258.59,-339.02"/>
<polygon fill="black" stroke="black" points="258.59,-338.99 254.65,-332.96 258.7,-326.99 262.64,-333.03 258.59,-338.99"/>
</g>
</g>
</svg>
